<?xml version="1.0" encoding="UTF-8" standalone="no"?>
<!-- Created with Inkscape (http://www.inkscape.org/) -->

<svg
   xmlns:dc="http://purl.org/dc/elements/1.1/"
   xmlns:cc="http://creativecommons.org/ns#"
   xmlns:rdf="http://www.w3.org/1999/02/22-rdf-syntax-ns#"
   xmlns:svg="http://www.w3.org/2000/svg"
   xmlns="http://www.w3.org/2000/svg"
   version="1.1"
   width="503.85657"
   height="377.11865"
   id="svg2">
  <defs
     id="defs4">
    <linearGradient
       id="linearGradient5273">
      <stop
         id="stop5275"
         style="stop-color:#230046;stop-opacity:1"
         offset="0" />
    </linearGradient>
  </defs>
  <metadata
     id="metadata7">
    <rdf:RDF>
      <cc:Work
         rdf:about="">
        <dc:format>image/svg+xml</dc:format>
        <dc:type
           rdf:resource="http://purl.org/dc/dcmitype/StillImage" />
        <dc:title></dc:title>
      </cc:Work>
    </rdf:RDF>
  </metadata>
  <g
     transform="translate(-108.28627,-49.641123)"
     id="layer1">
    <path
       d="m 523.54419,322.40417 -67.46497,-12.32844 28.3474,66.68404 -77.24748,-48.72551 -8.001,38.83055 -36.87927,-25.43928 -34.88631,32.39742 -12.91235,-45.9018 -56.13065,28.94185 15.5918,-46.37579 -90.38998,37.8271 56.9198,-66.22017 -70.74072,-0.40476 75.13073,-36.8398 -82.73833,-11.22125 61.94828,-17.01314 -31.29841,-28.35338 60.45511,-3.81718 -49.88084,-58.82108 84.17665,35.86159 -9.95263,-57.80626 49.20069,44.43194 33.1253,-35.25912 24.6124,41.27812 44.79629,-37.74205 1.84973,48.29392 62.5121,-18.66621 -9.63255,36.35631 78.08787,-12.21582 -62.15411,45.56397 61.69457,15.03868 -63.85152,20.15651 57.85325,28.00226 -67.5078,2.39343 z"
       id="path2988-6"
       style="fill:#dcdcdc;fill-opacity:1;fill-rule:nonzero;stroke:#230046;stroke-width:0;stroke-linecap:butt;stroke-linejoin:round;stroke-miterlimit:4;stroke-opacity:0.97716896;stroke-dashoffset:0" />
    <path
       d="m 519.68761,318.36641 -67.46497,-12.32844 28.3474,66.68404 -77.24748,-48.72551 -8.001,38.83055 -36.87927,-25.43928 -34.88632,32.39742 -12.91235,-45.9018 -56.13065,28.94185 15.5918,-46.37579 -90.38998,37.8271 56.9198,-66.22017 -70.74072,-0.40476 75.13073,-36.8398 -82.73833,-11.22125 61.94828,-17.01314 -31.29841,-28.35337 60.45511,-3.81718 -49.88084,-58.82108 84.17665,35.86159 -9.95263,-57.806267 49.20069,44.431947 33.12531,-35.25912 24.6124,41.27812 44.79629,-37.74205 1.84973,48.29392 62.5121,-18.66621 -9.63255,36.35631 78.08787,-12.21582 -62.15411,45.56396 61.69457,15.03868 -63.85152,20.15651 57.85325,28.00226 -67.5078,2.39343 z"
       id="path2988"
       style="fill:#ff0000;fill-opacity:1;fill-rule:nonzero;stroke:#230046;stroke-width:0;stroke-linecap:butt;stroke-linejoin:round;stroke-miterlimit:4;stroke-opacity:0.97716896;stroke-dashoffset:0" />
    <path
       d="m 497.88727,306.16785 -58.31079,-10.65561 24.50099,57.63581 -66.76592,-42.11404 -6.82474,37.15372 -32.72644,-21.01584 -31.67389,28.76211 -8.87846,-44.99775 -48.5144,25.0148 11.40335,-39.36888 -79.94803,32.95892 53.09218,-58.21369 -61.14207,-0.34983 63.28711,-31.10256 -70.70897,-12.09738 54.38917,-13.04448 -36.77511,-25.58655 61.9756,-2.21885 -46.91566,-52.36098 75.44437,33.5972 -9.63145,-50.50732 42.36775,36.77169 27.12741,-30.13984 25.07584,36.4378 41.69382,-33.6791 0.47501,43.41657 59.92088,-18.56746 -7.97458,34.20317 64.72258,-11.52159 -59.04481,39.38149 53.32337,12.99812 -55.18765,17.42152 50.00327,24.20268 -58.34781,2.06867 z"
       id="path2988-7"
       style="fill:#ffa500;fill-opacity:1;fill-rule:nonzero;stroke:#230046;stroke-width:0;stroke-linecap:butt;stroke-linejoin:round;stroke-miterlimit:4;stroke-opacity:0.97716896;stroke-dashoffset:0" />
    <path
       d="m 481.63288,298.36905 -51.08184,-9.33461 21.46354,50.49054 -58.48877,-36.89304 -6.1779,34.26843 -28.47,-20.13121 -27.74719,25.19638 -7.77778,-39.41924 -46.61383,21.9892 12.53921,-35.18951 -67.99294,24.52025 46.03081,-46.01837 -53.5621,-1.94104 55.12836,-26.39429 -60.83349,-12.92198 46.84977,-8.32079 -32.216,-22.41453 54.29231,-1.94377 -41.0994,-45.86963 65.30915,29.43206 -10.77804,-46.85794 36.10736,32.34875 27.89509,-23.92692 21.96712,31.9205 36.52493,-29.50381 0.41611,38.0341 54.52596,-17.2042 -6.04735,31.3708 53.7265,-10.56251 -51.72486,34.49925 46.71272,11.3867 -48.34587,15.26173 43.80421,21.20221 -51.11426,1.81221 z"
       id="path2988-7-6"
       style="fill:#ffff00;fill-opacity:1;fill-rule:nonzero;stroke:none" />
    <path
       d="m 467.34702,290.69193 -43.37464,-7.83013 17.39682,45.53458 -51.29972,-32.35839 -6.15182,30.23495 -24.2374,-17.83538 -24.33669,22.09941 -6.82179,-34.57409 -42.29397,18.50332 9.19329,-31.15257 -58.48542,20.89588 42.43702,-38.68017 -48.22861,-3.13103 47.45949,-23.15008 -49.96041,-12.41108 39.83834,-4.7921 -28.25623,-19.65949 47.61906,-1.70485 -36.04773,-40.23164 55.85321,25.45733 -10.06784,-42.61187 30.66071,26.94707 25.73242,-20.54701 21.05278,30.85419 32.03553,-25.8774 0.36496,33.3592 49.60971,-14.73243 -2.98262,27.33634 43.01566,-9.44281 -43.58148,27.4017 39.36396,11.59426 -41.51066,12.31443 37.52723,19.66761 -43.93877,1.05375 z"
       id="path2988-7-6-3"
       style="fill:#ffffff;fill-opacity:1;fill-rule:nonzero;stroke:none" />
  </g>
</svg>
