<svg xmlns="http://www.w3.org/2000/svg" fill="#3f1dcb" width="32" height="32" viewBox="0 0 8.467 8.467"><path d="m 5.24154,289.06474 a 3.06881,3.0681668 0 0 0 -2.9507244,4.23799 2.4614851,2.460969 0 0 1 -1.1947591,-2.70888 3.06881,3.0681668 0 0 0 5.0410359,3.48661 2.4614851,2.460969 0 0 1 -1.7487302,2.389 3.06881,3.0681668 0 0 0 0.4991942,-6.10815 2.4614851,2.460969 0 0 1 2.9440063,0.31987 3.06881,3.0681668 0 0 0 -2.5900227,-1.61644 z m -0.8170045,2.84996 a 0.66212284,0.66198401 0 0 1 0.6759279,0.66663 0.66212284,0.66198401 0 1 1 -1.3239501,0 0.66212284,0.66198401 0 0 1 0.6480222,-0.66663 z" transform="translate(0 -288.533)"/></svg>